<?xml version="1.0" encoding="utf-8"?>
<!-- Generator: Adobe Illustrator 18.1.1, SVG Export Plug-In . SVG Version: 6.00 Build 0)  -->
<svg version="1.1" id="Layer_1" xmlns="http://www.w3.org/2000/svg" xmlns:xlink="http://www.w3.org/1999/xlink" x="0px" y="0px"
	 viewBox="0 0 220.4 36.4" enable-background="new 0 0 220.4 36.4" xml:space="preserve">
<g>
	<path fill="#FFFFFF" d="M131.7,29.3h0.6l1.6-4.4h-0.7v-1h3.6v1h-0.7l1.6,4.4h0.6v1h-2.4v-1h0.7l-0.4-1h-2.4l-0.4,1h0.8v1h-2.4V29.3
		z M135.8,27.4l-0.9-2.5l-0.9,2.5H135.8z"/>
	<polygon fill="#FFFFFF" points="139.4,26.9 138.8,26.9 138.8,26 141,26 141,26.9 140.4,26.9 141,29 142,26.5 142.7,26.5 143.7,29 
		144.3,26.9 143.6,26.9 143.6,26 145.7,26 145.7,26.9 145.1,26.9 144.1,30.4 143.3,30.4 142.3,27.8 141.2,30.4 140.5,30.4 	"/>
	<g>
		<path fill="#FFFFFF" d="M146.8,29.2c0-0.8,0.7-1.3,1.7-1.3c0.4,0,0.8,0.1,1.1,0.1v-0.3c0-0.3-0.1-0.4-0.2-0.6
			c-0.2-0.2-0.5-0.3-0.8-0.3c-0.2,0-0.3,0-0.4,0.1c0,0.1,0,0.2,0,0.2c0,0.3-0.3,0.6-0.6,0.6c-0.3,0-0.6-0.2-0.6-0.6
			c0-0.5,0.5-1.1,1.7-1.1c0.7,0,1.2,0.2,1.5,0.6c0.2,0.3,0.3,0.6,0.3,1.1v1.8h0.6v0.9h-1.6v-0.5c-0.3,0.3-0.9,0.5-1.4,0.5
			C147.4,30.4,146.8,30,146.8,29.2 M149.5,29.2v-0.7c-0.2-0.1-0.5-0.1-0.9-0.1c-0.5,0-0.8,0.2-0.8,0.6c0,0.3,0.3,0.5,0.6,0.5
			C148.8,29.6,149.2,29.4,149.5,29.2"/>
		<polygon fill="#FFFFFF" points="152.3,29.4 153,29.4 153,24.1 152.3,24.1 152.3,23.2 154,23.2 154,27.9 155.2,26.9 154.7,26.9 
			154.7,26 157.2,26 157.2,26.9 156.4,26.9 155.4,27.8 156.5,29.4 157.2,29.4 157.2,30.3 155.8,30.3 154.6,28.4 154,28.9 154,29.4 
			154.5,29.4 154.5,30.3 152.3,30.3 		"/>
		<path fill="#FFFFFF" d="M159.4,28.5c0.1,0.7,0.7,0.9,1.4,0.9c0.5,0,1-0.2,1.5-0.4l-0.1,0.9c-0.4,0.3-1,0.4-1.6,0.4
			c-1.4,0-2.3-0.9-2.3-2.2c0-1.2,0.8-2.2,2.1-2.2c1.4,0,2.1,0.9,2.1,2c0,0.2,0,0.4,0,0.5H159.4z M159.4,27.8h2.1c0-0.6-0.4-1-1-1
			C160,26.8,159.5,27.1,159.4,27.8"/>
		<path fill="#FFFFFF" d="M165.4,26.7c0.4-0.4,0.9-0.8,1.5-0.8c0.5,0,0.9,0.2,1.1,0.5c0.1,0.2,0.2,0.5,0.2,0.9v2h0.6v0.9h-2.3v-0.9
			h0.6v-1.8c0-0.2,0-0.3-0.1-0.4c-0.1-0.2-0.3-0.3-0.5-0.3c-0.4,0-0.8,0.2-1.1,0.5v2h0.6v0.9h-2.3v-0.9h0.6v-2.5h-0.6V26h1.6V26.7z"
			/>
		<path fill="#FFFFFF" d="M172.7,27.1c0-2,1.5-3.3,3.3-3.3c1.5,0,2.5,0.8,2.5,1.5c0,0.5-0.3,0.8-0.7,0.8c-0.4,0-0.7-0.3-0.7-0.7
			c0-0.1,0-0.3,0.1-0.3c-0.2-0.1-0.6-0.3-1.1-0.3c-1.2,0-2.2,0.9-2.2,2.3c0,1.4,1,2.3,2.1,2.3c0.7,0,1.1-0.1,1.5-0.4v-1.1h-1.6V27
			h2.7v3.3h-1v-0.5c-0.4,0.3-1,0.6-1.7,0.6C174.2,30.4,172.7,29.2,172.7,27.1"/>
		<path fill="#FFFFFF" d="M184,26.7c0,0.4-0.3,0.7-0.6,0.7c-0.3,0-0.5-0.2-0.6-0.4c-0.3,0.1-0.6,0.4-0.8,0.8v1.7h0.7v0.9h-2.4v-0.9
			h0.6v-2.5h-0.6V26h1.6v1c0.4-0.6,0.8-1,1.3-1C183.7,26,184,26.3,184,26.7"/>
		<path fill="#FFFFFF" d="M186.1,28.5c0.1,0.7,0.7,0.9,1.4,0.9c0.5,0,1-0.2,1.5-0.4L189,30c-0.4,0.3-1,0.4-1.6,0.4
			c-1.4,0-2.3-0.9-2.3-2.2c0-1.2,0.8-2.2,2.1-2.2c1.4,0,2.1,0.9,2.1,2c0,0.2,0,0.4,0,0.5H186.1z M186.1,27.8h2.1c0-0.6-0.4-1-1-1
			C186.7,26.8,186.2,27.1,186.1,27.8"/>
		<path fill="#FFFFFF" d="M190.5,29.2c0-0.8,0.7-1.3,1.7-1.3c0.4,0,0.8,0.1,1.1,0.1v-0.3c0-0.3-0.1-0.4-0.2-0.6
			c-0.2-0.2-0.5-0.3-0.8-0.3c-0.2,0-0.3,0-0.4,0.1c0,0.1,0,0.2,0,0.2c0,0.3-0.3,0.6-0.6,0.6c-0.3,0-0.6-0.2-0.6-0.6
			c0-0.5,0.5-1.1,1.7-1.1c0.7,0,1.2,0.2,1.5,0.6c0.2,0.3,0.3,0.6,0.3,1.1v1.8h0.6v0.9h-1.6v-0.5c-0.3,0.3-0.9,0.5-1.4,0.5
			C191.1,30.4,190.5,30,190.5,29.2 M193.3,29.2v-0.7c-0.2-0.1-0.5-0.1-0.9-0.1c-0.5,0-0.8,0.2-0.8,0.6c0,0.3,0.3,0.5,0.6,0.5
			C192.6,29.6,193,29.4,193.3,29.2"/>
		<path fill="#FFFFFF" d="M196.6,29.8c-0.1-0.2-0.1-0.4-0.1-0.7v-2.2h-0.8V26h0.8v-0.9l1-0.5V26h1.3v0.9h-1.3v2c0,0.1,0,0.2,0.1,0.3
			c0.1,0.1,0.2,0.2,0.4,0.2c0.3,0,0.6-0.1,0.8-0.2l-0.1,0.9c-0.3,0.1-0.6,0.3-1,0.3C197.3,30.4,196.8,30.2,196.6,29.8"/>
		<path fill="#FFFFFF" d="M201.8,26.7c0.4-0.4,0.9-0.8,1.5-0.8c0.5,0,0.9,0.2,1.1,0.5c0.1,0.2,0.2,0.5,0.2,0.9v2h0.6v0.9h-2.3v-0.9
			h0.6v-1.8c0-0.2,0-0.3-0.1-0.4c-0.1-0.2-0.3-0.3-0.5-0.3c-0.4,0-0.8,0.2-1.1,0.5v2h0.6v0.9h-2.3v-0.9h0.6v-2.5h-0.6V26h1.6V26.7z"
			/>
		<path fill="#FFFFFF" d="M207.3,28.5c0.1,0.7,0.7,0.9,1.4,0.9c0.5,0,1-0.2,1.5-0.4l-0.1,0.9c-0.4,0.3-1,0.4-1.6,0.4
			c-1.4,0-2.3-0.9-2.3-2.2c0-1.2,0.8-2.2,2.1-2.2c1.4,0,2.1,0.9,2.1,2c0,0.2,0,0.4,0,0.5H207.3z M207.3,27.8h2.1c0-0.6-0.4-1-1-1
			C207.9,26.8,207.5,27.1,207.3,27.8"/>
		<path fill="#FFFFFF" d="M214.8,27.5c-0.3,0-0.6-0.2-0.6-0.5c0-0.1,0-0.1,0-0.2c-0.2-0.1-0.4-0.1-0.6-0.1c-0.5,0-0.7,0.2-0.7,0.4
			c0,0.2,0.2,0.4,0.9,0.5c1,0.3,1.6,0.5,1.6,1.3c0,0.9-0.8,1.4-1.8,1.4c-0.6,0-1.3-0.2-1.6-0.5c-0.2-0.2-0.2-0.3-0.2-0.6
			c0-0.3,0.2-0.6,0.6-0.6c0.3,0,0.6,0.2,0.6,0.6c0,0.1,0,0.1,0,0.2c0.2,0.1,0.5,0.1,0.8,0.1c0.4,0,0.8-0.1,0.8-0.5
			c0-0.2-0.2-0.3-0.8-0.5c-1.2-0.3-1.7-0.6-1.7-1.3c0-0.7,0.5-1.3,1.7-1.3c0.5,0,1.1,0.2,1.4,0.5c0.2,0.2,0.2,0.3,0.2,0.5
			C215.3,27.3,215.1,27.5,214.8,27.5"/>
		<path fill="#FFFFFF" d="M219.8,27.5c-0.3,0-0.6-0.2-0.6-0.5c0-0.1,0-0.1,0-0.2c-0.2-0.1-0.4-0.1-0.6-0.1c-0.5,0-0.7,0.2-0.7,0.4
			c0,0.2,0.2,0.4,0.9,0.5c1,0.3,1.6,0.5,1.6,1.3c0,0.9-0.8,1.4-1.8,1.4c-0.6,0-1.3-0.2-1.6-0.5c-0.2-0.2-0.2-0.3-0.2-0.6
			c0-0.3,0.2-0.6,0.6-0.6c0.3,0,0.6,0.2,0.6,0.6c0,0.1,0,0.1,0,0.2c0.2,0.1,0.5,0.1,0.8,0.1c0.4,0,0.8-0.1,0.8-0.5
			c0-0.2-0.2-0.3-0.8-0.5c-1.2-0.3-1.7-0.6-1.7-1.3c0-0.7,0.5-1.3,1.7-1.3c0.5,0,1.1,0.2,1.4,0.5c0.2,0.2,0.2,0.3,0.2,0.5
			C220.3,27.3,220.1,27.5,219.8,27.5"/>
		<path fill="#FFFFFF" d="M0,27.1c0-1.9,1.5-3.3,3.3-3.3c1.5,0,2.5,0.8,2.5,1.5c0,0.5-0.3,0.8-0.7,0.8c-0.4,0-0.7-0.3-0.7-0.7
			c0-0.1,0-0.3,0.1-0.3c-0.2-0.1-0.6-0.3-1.1-0.3c-1.2,0-2.2,0.9-2.2,2.3c0,1.3,0.9,2.3,2.2,2.3c0.7,0,1.4-0.3,1.8-0.8l0.7,0.8
			c-0.6,0.7-1.5,1.1-2.6,1.1C1.4,30.4,0,29.1,0,27.1"/>
		<path fill="#FFFFFF" d="M7.3,29.2c0-0.8,0.7-1.3,1.7-1.3c0.4,0,0.8,0.1,1.1,0.1v-0.3c0-0.3-0.1-0.4-0.2-0.6
			c-0.2-0.2-0.5-0.3-0.8-0.3c-0.2,0-0.3,0-0.4,0.1c0,0.1,0,0.2,0,0.2c0,0.3-0.3,0.6-0.6,0.6c-0.3,0-0.6-0.2-0.6-0.6
			c0-0.5,0.5-1.1,1.7-1.1c0.7,0,1.2,0.2,1.5,0.6c0.2,0.3,0.3,0.6,0.3,1.1v1.8h0.6v0.9h-1.6v-0.5c-0.3,0.3-0.9,0.5-1.4,0.5
			C8,30.4,7.3,30,7.3,29.2 M10.1,29.2v-0.7c-0.2-0.1-0.5-0.1-0.9-0.1c-0.5,0-0.8,0.2-0.8,0.6c0,0.3,0.3,0.5,0.6,0.5
			C9.4,29.6,9.8,29.4,10.1,29.2"/>
		<path fill="#FFFFFF" d="M13.4,29.8c-0.1-0.2-0.1-0.4-0.1-0.7v-2.2h-0.8V26h0.8v-0.9l1-0.5V26h1.3v0.9h-1.3v2c0,0.1,0,0.2,0.1,0.3
			c0.1,0.1,0.2,0.2,0.4,0.2c0.3,0,0.6-0.1,0.8-0.2l-0.1,0.9c-0.3,0.1-0.6,0.3-1,0.3C14.1,30.4,13.6,30.2,13.4,29.8"/>
		<path fill="#FFFFFF" d="M16.9,24.1v-0.9h1.7v3.5C19,26.3,19.4,26,20,26c0.5,0,0.8,0.2,1,0.5c0.2,0.2,0.3,0.6,0.3,1v2H22v0.9h-2.3
			v-0.9h0.6v-1.8c0-0.2,0-0.4-0.1-0.5c-0.1-0.1-0.3-0.2-0.5-0.2c-0.4,0-0.8,0.2-1.1,0.5v2h0.6v0.9h-2.3v-0.9h0.6v-5.3H16.9z"/>
		<path fill="#FFFFFF" d="M23,28.2c0-1.2,0.9-2.2,2.3-2.2c1.4,0,2.3,1,2.3,2.2c0,1.2-0.9,2.2-2.3,2.2C23.9,30.4,23,29.3,23,28.2
			 M26.4,28.2c0-0.8-0.5-1.3-1.2-1.3c-0.7,0-1.2,0.5-1.2,1.3c0,0.8,0.5,1.3,1.2,1.3C26,29.5,26.4,28.9,26.4,28.2"/>
		<polygon fill="#FFFFFF" points="28.6,29.4 29.3,29.4 29.3,24.1 28.6,24.1 28.6,23.2 30.3,23.2 30.3,29.4 31,29.4 31,30.3 
			28.6,30.3 		"/>
		<path fill="#FFFFFF" d="M32.2,29.4h0.6v-2.5h-0.6V26h1.7v3.4h0.6v0.9h-2.3V29.4z M32.6,24.7c0-0.4,0.3-0.7,0.7-0.7
			c0.4,0,0.7,0.3,0.7,0.7c0,0.4-0.3,0.7-0.7,0.7C32.9,25.4,32.6,25.1,32.6,24.7"/>
		<path fill="#FFFFFF" d="M35.7,28.1c0-1.1,0.9-2.2,2.1-2.2c1.2,0,1.9,0.8,1.9,1.4c0,0.4-0.3,0.7-0.7,0.7c-0.3,0-0.6-0.3-0.6-0.6
			c0-0.1,0.1-0.3,0.1-0.4c-0.1-0.1-0.3-0.3-0.8-0.3c-0.5,0-1.1,0.4-1.1,1.3c0,0.8,0.6,1.3,1.4,1.3c0.5,0,1-0.1,1.5-0.4L39.5,30
			c-0.5,0.3-0.9,0.4-1.5,0.4C36.7,30.4,35.7,29.5,35.7,28.1"/>
		<path fill="#FFFFFF" d="M43.8,28.9c0-0.5,0.3-0.8,0.7-0.8c0.4,0,0.7,0.3,0.7,0.6c0,0.2,0,0.3-0.1,0.4c0.2,0.2,0.6,0.3,1,0.3
			c0.7,0,1.1-0.3,1.1-0.9c0-0.5-0.5-0.8-1.2-1c-1.2-0.4-2-0.8-2-2c0-1,0.8-1.8,2.1-1.8c1.2,0,2.1,0.6,2.1,1.4c0,0.5-0.3,0.7-0.6,0.7
			c-0.4,0-0.7-0.3-0.7-0.6c0-0.2,0-0.2,0.1-0.3c-0.2-0.1-0.4-0.2-0.8-0.2c-0.6,0-1,0.3-1,0.8c0,0.5,0.5,0.8,1.2,1c1.1,0.4,2,0.8,2,2
			c0,1.2-0.9,1.9-2.2,1.9C44.8,30.4,43.8,29.7,43.8,28.9"/>
		<path fill="#FFFFFF" d="M49.8,28.1c0-1.1,0.9-2.2,2.1-2.2c1.2,0,1.9,0.8,1.9,1.4c0,0.4-0.3,0.7-0.7,0.7c-0.3,0-0.6-0.3-0.6-0.6
			c0-0.1,0.1-0.3,0.1-0.4c-0.1-0.1-0.3-0.3-0.8-0.3c-0.5,0-1.1,0.4-1.1,1.3c0,0.8,0.6,1.3,1.4,1.3c0.5,0,1-0.1,1.5-0.4L53.6,30
			c-0.5,0.3-0.9,0.4-1.5,0.4C50.8,30.4,49.8,29.5,49.8,28.1"/>
		<path fill="#FFFFFF" d="M55.1,24.1v-0.9h1.7v3.5c0.4-0.4,0.8-0.7,1.4-0.7c0.5,0,0.8,0.2,1,0.5c0.2,0.2,0.3,0.6,0.3,1v2h0.6v0.9
			h-2.3v-0.9h0.6v-1.8c0-0.2,0-0.4-0.1-0.5c-0.1-0.1-0.3-0.2-0.5-0.2c-0.4,0-0.8,0.2-1.1,0.5v2h0.6v0.9h-2.3v-0.9h0.6v-5.3H55.1z"/>
		<path fill="#FFFFFF" d="M61.2,28.2c0-1.2,0.9-2.2,2.3-2.2c1.4,0,2.3,1,2.3,2.2c0,1.2-0.9,2.2-2.3,2.2C62,30.4,61.2,29.3,61.2,28.2
			 M64.6,28.2c0-0.8-0.5-1.3-1.2-1.3c-0.7,0-1.2,0.5-1.2,1.3c0,0.8,0.5,1.3,1.2,1.3C64.1,29.5,64.6,28.9,64.6,28.2"/>
		<path fill="#FFFFFF" d="M67,28.2c0-1.2,0.9-2.2,2.3-2.2c1.4,0,2.3,1,2.3,2.2c0,1.2-0.9,2.2-2.3,2.2C67.8,30.4,67,29.3,67,28.2
			 M70.4,28.2c0-0.8-0.5-1.3-1.2-1.3c-0.7,0-1.2,0.5-1.2,1.3c0,0.8,0.5,1.3,1.2,1.3C69.9,29.5,70.4,28.9,70.4,28.2"/>
		<polygon fill="#FFFFFF" points="72.6,29.4 73.2,29.4 73.2,24.1 72.6,24.1 72.6,23.2 74.3,23.2 74.3,29.4 74.9,29.4 74.9,30.3 
			72.6,30.3 		"/>
		<path fill="#AE852D" d="M103.9,0.7c0-0.4-0.3-0.7-0.7-0.7c-0.4,0-0.7,0.3-0.7,0.7c0,0.3,0.1,0.5,0.4,0.6v9.2h0.7V1.3
			C103.8,1.2,103.9,1,103.9,0.7"/>
		<path fill="#AE852D" d="M83,36.4h10.7V21.7H83V36.4z M112.8,36.4h10.7V21.7h-10.7V36.4z"/>
		<rect x="80.4" y="33.6" fill="#AE852D" width="45.4" height="2.8"/>
		<path fill="#AE852D" d="M92.3,18.1l5.6-5.3H81.1v8.1h11.2V18.1z M125.5,20.8v-8.1h-16.8l5.6,5.3v2.7H125.5z"/>
		<polygon fill="#AE852D" points="93,18.4 93,20.8 94.6,20.8 94.6,36.4 112,36.4 112,20.8 113.5,20.8 113.5,18.4 103.3,8.6 		"/>
		<path fill="#FFFFFF" d="M96.6,24.8h3.3v-3.3h-3.3V24.8z M101.6,20.1h3.3v-3.3h-3.3V20.1z M101.6,24.8h3.3v-3.3h-3.3V24.8z
			 M101.6,29.7h3.3v-3.3h-3.3V29.7z M101.6,34.7h3.3v-3.3h-3.3V34.7z M110,21.5h-3.3v3.3h3.3V21.5z"/>
		<path fill="#C8AF89" d="M84.2,27h3.3v-3.3h-3.3V27z M84.2,31.9h3.3v-3.3h-3.3V31.9z M89.3,27h3.3v-3.3h-3.3V27z M89.3,31.9h3.3
			v-3.3h-3.3V31.9z M114,27h3.3v-3.3H114V27z M114,31.9h3.3v-3.3H114V31.9z M119,27h3.3v-3.3H119V27z M122.3,28.6H119v3.3h3.3V28.6z
			"/>
		<path fill="#AE852D" d="M104,1.5v4.3c0,0,1.5-0.9,2.6-0.9c1,0,1.7,0.9,2.7,0.9c1,0,2.3-0.7,2.3-0.7V0.9c0,0-1.3,0.7-2.2,0.7
			c-0.9,0-1.6-0.9-2.8-0.9C105.4,0.7,104,1.5,104,1.5"/>
	</g>
</g>
</svg>
