<?xml version="1.0" encoding="utf-8"?>
<!-- Generator: Adobe Illustrator 18.1.1, SVG Export Plug-In . SVG Version: 6.00 Build 0)  -->
<svg version="1.1" id="Layer_1" xmlns="http://www.w3.org/2000/svg" xmlns:xlink="http://www.w3.org/1999/xlink" x="0px" y="0px"
	 viewBox="0 0 38.6 38.6" enable-background="new 0 0 38.6 38.6" xml:space="preserve">
<path fill="#FFFFFF" d="M31.1,0H7.5C3.3,0,0,3.3,0,7.5v7.9v15.8c0,4.1,3.3,7.5,7.5,7.5h23.7c4.1,0,7.5-3.3,7.5-7.5V15.3V7.5
	C38.6,3.3,35.2,0,31.1,0z M33.2,4.4l0.9,0v0.8V11l-6.5,0l0-6.5L33.2,4.4z M13.8,15.3c1.2-1.7,3.2-2.8,5.5-2.8s4.3,1.1,5.5,2.8
	c0.8,1.1,1.3,2.5,1.3,4c0,3.7-3,6.8-6.8,6.8c-3.7,0-6.8-3-6.8-6.8C12.5,17.8,13,16.4,13.8,15.3z M34.8,31.1c0,2-1.7,3.7-3.7,3.7H7.5
	c-2,0-3.7-1.7-3.7-3.7V15.3h5.8c-0.5,1.2-0.8,2.6-0.8,4c0,5.8,4.7,10.5,10.5,10.5c5.8,0,10.5-4.7,10.5-10.5c0-1.4-0.3-2.7-0.8-4h5.8
	V31.1z"/>
</svg>
