<?xml version="1.0" encoding="utf-8"?>
<!-- Generator: Adobe Illustrator 18.1.1, SVG Export Plug-In . SVG Version: 6.00 Build 0)  -->
<svg version="1.1" id="Layer_1" xmlns="http://www.w3.org/2000/svg" xmlns:xlink="http://www.w3.org/1999/xlink" x="0px" y="0px"
	 viewBox="0 0 62.3 30" enable-background="new 0 0 62.3 30" xml:space="preserve">
<g>
	<path fill="#595958" d="M60.3,6.3H2c-1.1,0-2-0.9-2-2V2c0-1.1,0.9-2,2-2h58.3c1.1,0,2,0.9,2,2v2.3C62.3,5.4,61.4,6.3,60.3,6.3z"/>
	<path fill="#595958" d="M60.3,18.1H2c-1.1,0-2-0.9-2-2v-2.3c0-1.1,0.9-2,2-2h58.3c1.1,0,2,0.9,2,2v2.3
		C62.3,17.2,61.4,18.1,60.3,18.1z"/>
	<path fill="#595958" d="M60.3,30H2c-1.1,0-2-0.9-2-2v-2.3c0-1.1,0.9-2,2-2h58.3c1.1,0,2,0.9,2,2V28C62.3,29.1,61.4,30,60.3,30z"/>
</g>
</svg>
