<?xml version="1.0" encoding="utf-8"?>
<!-- Generator: Adobe Illustrator 18.1.1, SVG Export Plug-In . SVG Version: 6.00 Build 0)  -->
<svg version="1.1" id="Layer_1" xmlns="http://www.w3.org/2000/svg" xmlns:xlink="http://www.w3.org/1999/xlink" x="0px" y="0px"
	 viewBox="0 0 18.4 24.8" enable-background="new 0 0 18.4 24.8" xml:space="preserve">
<g>
	<path fill="#F1AD30" d="M0,4.7c0-0.1,0-0.1,0-0.2c0-0.4,0.1-0.8,0.2-1.1C0.4,2.9,0.6,2.4,1,2c0.3-0.4,0.8-0.8,1.2-1
		c0.5-0.3,1-0.5,1.6-0.7c0.3-0.1,0.6-0.1,0.9-0.2c0.2,0,0.4,0,0.6-0.1c0,0,0.1,0,0.1,0c0,0,0,0,0,0.1c0,0.5,0,0.9,0,1.4
		c0,0.4,0,0.7,0,1.1c0,0.5,0,1,0,1.5c0,0.4,0,0.8,0,1.1c0,0.5,0,1,0,1.5c0,0.2,0,0.3,0,0.5c0,0,0,0,0,0c0,0,0,0-0.1,0
		C5.2,7.4,5,7.6,4.8,7.8c-0.3,0.3-0.4,0.6-0.5,1c-0.1,0.4,0,0.7,0,1.1c0,0.2,0.1,0.4,0.2,0.6C5.3,12,6.1,13.6,7,15.2
		c0.4,0.8,0.9,1.6,1.3,2.4c0.2,0.3,0.3,0.6,0.5,0.8c0.2,0.2,0.4,0.4,0.6,0.5C9.6,19,9.8,19,10,19.1c0.4,0,0.7,0,1-0.1
		c0.2-0.1,0.3-0.1,0.5-0.2c0,0,0,0,0,0c1.9,1.5,3.8,3,5.7,4.5c0,0,0,0-0.1,0c-0.5,0.3-1,0.6-1.5,0.8c-0.8,0.3-1.6,0.6-2.5,0.8
		c-0.1,0-0.1,0-0.2,0c-0.4,0-0.7,0-1.1,0c-0.1,0-0.3,0-0.4,0c-0.8-0.1-1.6-0.5-2.3-0.9c-0.6-0.3-1.1-0.7-1.6-1.2
		c-0.6-0.5-1.2-1.1-1.8-1.7c-0.8-0.9-1.5-1.8-2.2-2.8c-0.4-0.5-0.7-1-1-1.5c-0.3-0.5-0.6-1-0.8-1.5c-0.3-0.6-0.5-1.2-0.7-1.9
		c-0.2-0.6-0.4-1.2-0.5-1.9c-0.1-0.4-0.2-0.8-0.2-1.3c-0.1-0.3-0.1-0.7-0.1-1c0-0.3-0.1-0.5-0.1-0.8c0-0.2,0-0.4-0.1-0.6
		c0-0.3-0.1-0.6-0.1-0.9c0-0.2,0-0.4,0-0.7c0-0.3,0-0.6,0-0.9c0,0,0,0,0-0.1C0,5.1,0,4.9,0,4.7z"/>
	<path fill="#F1AD30" d="M18.4,21.2c0,0.1,0,0.1-0.1,0.2c-0.1,0.5-0.3,0.9-0.4,1.4c0,0,0,0,0,0c-2-1.6-3.9-3.1-5.9-4.7c0,0,0,0,0,0
		c0.5-0.3,1-0.5,1.5-0.8c0,0,0.1,0,0.1,0c0.3,0,0.5,0.1,0.7,0.2c0.2,0.1,0.4,0.2,0.6,0.4c0.9,0.7,1.8,1.3,2.6,2
		c0.2,0.1,0.3,0.3,0.5,0.4c0.2,0.2,0.3,0.3,0.4,0.6c0,0,0,0.1,0,0.1C18.4,21,18.4,21.1,18.4,21.2z"/>
	<path fill="#F1AD30" d="M6.3,0C6.3,0,6.4,0,6.3,0c0.3,0,0.4,0.1,0.6,0.2c0.3,0.1,0.5,0.2,0.7,0.4c0.1,0.1,0.2,0.2,0.3,0.3
		C8,1,8,1.1,8,1.2c0,0.5,0,0.9,0,1.4c0,0.8,0,1.6,0,2.3c0,0.4,0,0.7,0,1.1c0,0,0,0.1,0,0.1C7.9,6.2,7.7,6.4,7.6,6.6
		C7.5,6.7,7.4,6.7,7.3,6.8C7.1,6.9,6.9,7,6.6,7.1c-0.1,0-0.2,0-0.3,0c0,0-0.1,0-0.1,0c0,0-0.1-0.1-0.1-0.1c0-0.1,0-0.1,0-0.2
		c0-0.3,0-0.6,0-0.8c0-0.6,0-1.3-0.1-2c0-0.5,0-1,0-1.6c0-0.8,0-1.5,0-2.3c0,0,0,0,0-0.1c0,0,0.1,0,0.1,0C6.2,0,6.2,0,6.3,0z"/>
</g>
</svg>
