<?xml version="1.0" encoding="utf-8"?>
<!-- Generator: Adobe Illustrator 19.0.0, SVG Export Plug-In . SVG Version: 6.00 Build 0)  -->
<svg version="1.1" id="Layer_2" xmlns="http://www.w3.org/2000/svg" xmlns:xlink="http://www.w3.org/1999/xlink" x="0px" y="0px"
	 viewBox="0 0 97.7 64.5" enable-background="new 0 0 97.7 64.5" xml:space="preserve">
<g id="XMLID_3_">
	<g id="XMLID_22_">
		<path id="XMLID_23_" fill-rule="evenodd" clip-rule="evenodd" fill="#FFFFFF" d="M49.9,0c0,1.5,0,3,0,4.4C49.9,4.8,50,5,50.4,5
			c1.1,0,2.3,0,3.5,0c0,1.1,0,2.2,0,3.3c0,0.1-0.3,0.2-0.4,0.2c-1.1,0-2.2,0.1-3.3,0.1c-0.4,0-0.4,0.2-0.4,0.6c0,0.6,0,0.3,0.1,2.1
			c0,0.4,0.2,0.7,0.5,0.9c2.1,1.7,4.1,3.4,6.1,5.1c0.1,0.1,0.2,0.3,0.2,0.4c0,1.5,0,3.1,0,4.6c0,0,0,0.1-0.1,0.2
			c-0.6-0.3-1.2-0.6-1.9-1c0,1.1,0,2,0,3c0,0.2,0.3,0.4,0.5,0.5c2,1.6,4.1,3.3,6.1,4.9c2.9,2.3,5.8,4.7,8.8,7c0.7,0.5,1.3,1.1,2,1.6
			c0.3,0.2,0.5,0.5,0.5,0.9c0,1.3,0,2.6,0,3.9c0,0.2,0,0.3,0,0.7c-8-6.4-15.9-12.8-23.9-19.2C40.9,31.5,33,38,25,44.6
			c0-0.2-0.1-0.4-0.1-0.5c0-1.6,0-3.1,0-4.7c0-0.2,0.2-0.6,0.3-0.7c1.6-1.4,3.3-2.7,5-4.1c2.8-2.3,5.5-4.5,8.3-6.8
			c1.2-1,2.4-1.9,3.6-3c0.2-0.2,0.3-0.5,0.4-0.8c0-1.1,0-2.2,0-3.4c-0.7,0.6-1.4,1.2-2,1.8c0-0.1-0.1-0.2-0.1-0.2c0-1.7,0-3.4,0-5
			c0-0.2,0.1-0.4,0.3-0.5c1.9-1.5,3.8-2.9,5.7-4.4c0.4-0.3,0.5-0.5,0.5-1c0-3.5,0,1.2,0-2.3c0-0.5-0.1-0.7-0.6-0.6
			c-1.1,0-2.2,0-3.4,0c0-1.1-0.1-2.2-0.1-3.3c0-0.1,0.3-0.2,0.4-0.2c1.1,0,2.1,0,3.2,0c0.4,0,0.5-0.1,0.5-0.5c0-1.4,0-2.9,0-4.3
			C47.9,0,48.9,0,49.9,0z M46.3,21.1c0.6-0.5,1-0.9,1.5-1.2c0.4-0.4,1.3-0.3,1.7,0.1c0.3,0.3,0.7,0.7,1.1,1.1c0-0.8-0.1-1.4,0-2
			c0.1-1.1-0.1-2.1-1.2-2.7c-0.1-0.1-0.2-0.2-0.3-0.3c-0.5-0.5-1.1-0.4-1.6,0.1c-0.3,0.4-0.7,0.7-1,1.1c-0.1,0.2-0.3,0.4-0.3,0.5
			C46.3,18.9,46.3,19.9,46.3,21.1z"/>
	</g>
	<g id="XMLID_20_">
		<path id="XMLID_21_" fill-rule="evenodd" clip-rule="evenodd" fill="#FFFFFF" d="M49.2,64.4c0-1.8,0-3.6,0-5.5c0.2,0,0.4,0,0.5,0
			c0.8,0,1.6,0,2.5,0c1.2,0,1.2,0,1.4,1.2c0,0.1,0,0.1,0,0.2c0.4,0.5,1,0.1,1.5,0.2c0.1,0,0.3-0.3,0.3-0.4c0-0.7,0-1.5,0-2.2
			c0-0.4-0.1-0.5-0.5-0.5c-1.8,0-3.5,0-5.3,0c-0.4,0-0.6-0.1-0.6-0.5c0-9.6,0-19.2,0-28.8c0-0.1,0-0.2,0-0.5
			c0.9,0.7,1.8,1.4,2.7,2.1c2.3,1.8,4.5,3.6,6.8,5.3c0.3,0.2,0.5,0.4,0.5,0.9c0.1,5,0.1,10,0.2,15c0,0.1,0,0.2,0,0.4
			c-0.5,0-1,0-1.4,0c-0.6,0-1.2,0-1.8,0c-0.5,0-0.6-0.1-0.6-0.6c0-3.1,0-6.1,0-9.2c0-1,0-2,0-3c0-0.2-0.1-0.4-0.2-0.5
			c-0.7-0.6-1.3-1.2-2.1-1.9c-0.1,5.8-0.1,11.4-0.2,17.1c2.3,0,4.5,0,6.8,0c0,3.8,0,7.5,0,11.3C56.2,64.4,52.7,64.4,49.2,64.4z"/>
	</g>
	<g id="XMLID_16_">
		<path id="XMLID_17_" fill-rule="evenodd" clip-rule="evenodd" fill="#FFFFFF" d="M47.9,27.4c0,0.3,0,0.5,0.1,0.7
			c0.1,4.6,0.1,9.2,0.2,13.8c0.1,5,0.2,9.9,0.3,14.9c0,0.4-0.1,0.6-0.5,0.6c-1.9,0-3.8,0-5.8,0c0,2.3,0,4.6,0,7c-1.3,0-2.6,0-3.9,0
			c-0.1,0-0.2-0.2-0.3-0.3c0-0.1,0-0.3,0-0.4c0-9.2,0-18.4,0-27.5c0-0.4,0.1-0.7,0.4-1c2.9-2.4,5.9-4.9,8.8-7.3
			C47.3,27.8,47.6,27.6,47.9,27.4z M44.2,35.5c-0.2,0.2-0.3,0.3-0.4,0.4c-0.5,0.6-1,1.1-1.5,1.7c-0.2,0.2-0.3,0.6-0.3,0.8
			c0,4.7,0,9.4,0,14.1c0,0.2,0,0.4,0,0.6c0.6,0,1.1,0,1.6,0c0.5,0,0.7-0.1,0.7-0.7c0-5.4,0-10.9,0-16.3C44.2,36,44.2,35.8,44.2,35.5
			z"/>
	</g>
	<g id="XMLID_14_">
		<path id="XMLID_15_" fill-rule="evenodd" clip-rule="evenodd" fill="#FFFFFF" d="M37,64.4c-0.2,0-0.4,0-0.5,0c-3.2,0-6.4,0-9.6,0
			c-0.4,0-0.6-0.1-0.6-0.6c0-1.6,0-3.3,0-4.9c0-0.2,0-0.3,0-0.5c0.5,0,0.9,0,1.4,0c0.9,0,1.8,0.1,2.7,0.1c0.3,0,0.4,0.1,0.4,0.4
			c0.1,1.2,0.1,1.2,1.2,1.2c0.5,0,1.2,0.1,1.4-0.1c0.3-0.2,0.1-0.9,0.1-1.4c0-0.4,0-0.7,0-1.1c-2.4,0-4.8,0-7.3,0c0-0.3,0-0.5,0-0.7
			c0-3.5,0-7,0-10.4c0-0.4,0.1-0.7,0.4-1c3-2.6,6.1-5.3,9.1-8c0.3-0.3,0.6-0.8,1.1-0.6c0,4.7,0,9.4,0,14.2c-0.5,0-1,0-1.5,0
			c-0.6,0-1.2,0-1.8,0c-0.5,0-0.6-0.2-0.6-0.6c0.1-1.4,0.1-2.9,0.2-4.3c0-0.2,0-0.3,0-0.7c-0.3,0.1-0.6,0.2-0.8,0.3
			c-0.6,0.5-1.2,1-1.8,1.6c-0.1,0.1-0.2,0.3-0.2,0.4c0,1.8,0,3.6,0,5.4c2.2,0,4.3,0,6.5,0C37,56.9,37,60.7,37,64.4z"/>
	</g>
	<g id="XMLID_12_">
		<path id="XMLID_13_" fill-rule="evenodd" clip-rule="evenodd" fill="#FFFFFF" d="M60.9,64.5c0-9.2,0-18.4,0-27.6
			c0.9,0.8,1.7,1.5,2.5,2.2c0.5,0.4,0.7,0.9,0.7,1.6c0,6.3,0,12.6,0,18.9c0,0.5,0.1,0.7,0.7,0.7c0.7-0.1,1.4,0,2,0
			c0.4,0,0.5-0.1,0.5-0.5c0-2,0-3.9,0-5.9c0-0.2,0-0.4,0-0.6c1.5,0,3,0,4.4,0c0,0.2,0,0.4,0,0.5c0,3.4,0,6.8,0,10.1
			c0,0.5-0.1,0.6-0.6,0.6c-3.2,0-6.5,0-9.7,0C61.2,64.5,61.1,64.5,60.9,64.5z"/>
	</g>
	<g id="XMLID_10_">
		<path id="XMLID_11_" fill-rule="evenodd" clip-rule="evenodd" fill="#FFFFFF" d="M0.8,64.4c-0.2-0.5,0-0.8,0.4-1.1
			c2.6-1.9,4.2-4.3,4.9-7.4c0.2-1,0.1-2,0.1-3.1c0-0.4-0.3-0.9-0.6-1.2c-0.6-0.7-1.3-1.1-2.2-1.4c-0.9-0.2-1.7,0-2.4,0.6
			c-0.3,0.3-0.6,0.6-1,1C0,51.6,0,51.5,0,51.3c0-1.2,0-2.4,0-3.6c0-0.2,0.2-0.6,0.4-0.7c1.6-1.5,5.1-1.7,7.1,0.5
			c0.8,0.8,1.6,1.6,2.5,2.5c0.4-0.8,0.8-1.5,1.2-2.2c0.9-1.7,1.8-3.4,2.8-5.1c0.1-0.2,0.3-0.4,0.5-0.4c2,0,4,0,6,0
			c0.1,0,0.2,0,0.3,0.1c0,0.4,0,0.8,0,1.1c0,0-0.1,0.1-0.1,0.1c-1.7-0.3-2.7,0.8-3.4,2c-0.9,1.3-1.6,2.8-2.4,4.2
			c-0.6,1-0.7,2-0.6,3.1c0,1.2,0,2.5,0.2,3.7c0.2,1.5,1,2.8,1.9,4c0.8,1.1,1.9,1.9,3.1,2.6c0.5,0.3,0.4,0.8,0.5,1.3
			c-0.4,0-0.7,0-1,0c-1.4,0-2.9,0-4.3,0c-0.2,0-0.5-0.2-0.7-0.3c-1.1-1.6-2.2-3.2-3-5c-0.2-0.5-0.7-0.4-1-0.4
			c-0.4,0-0.7,0.1-0.8,0.6c-0.4,1.8-1.3,3.4-2.2,4.9c-0.1,0.1-0.2,0.2-0.3,0.2c-1.8,0-3.7,0-5.5,0C0.9,64.4,0.9,64.4,0.8,64.4z"/>
	</g>
	<g id="XMLID_8_">
		<path id="XMLID_9_" fill-rule="evenodd" clip-rule="evenodd" fill="#FFFFFF" d="M4.3,41.9c0-2.4,1.8-4.2,4.2-4.2
			c2.3,0,4.2,1.9,4.2,4.2c0,2.4-2.1,4.2-4.3,4.2C6.2,46.1,4.3,44.2,4.3,41.9z"/>
	</g>
	<g id="XMLID_6_">
		<path id="XMLID_7_" fill-rule="evenodd" clip-rule="evenodd" fill="#FFFFFF" d="M96.9,64.4c0.2-0.5,0-0.8-0.4-1.1
			c-2.6-1.9-4.2-4.3-4.9-7.4c-0.2-1-0.1-2-0.1-3.1c0-0.4,0.3-0.9,0.6-1.2c0.6-0.7,1.3-1.1,2.2-1.4c0.9-0.2,1.7,0,2.4,0.6
			c0.3,0.3,0.6,0.6,1,1c0-0.2,0.1-0.3,0.1-0.4c0-1.2,0-2.4,0-3.6c0-0.2-0.2-0.6-0.4-0.7c-1.6-1.5-5.1-1.7-7.1,0.5
			c-0.8,0.8-1.6,1.6-2.5,2.5c-0.4-0.8-0.8-1.5-1.2-2.2c-0.9-1.7-1.8-3.4-2.8-5.1c-0.1-0.2-0.3-0.4-0.5-0.4c-2,0-4,0-6,0
			c-0.1,0-0.2,0-0.3,0.1c0,0.4,0,0.8,0,1.1c0,0,0.1,0.1,0.1,0.1c1.7-0.3,2.7,0.8,3.4,2c0.9,1.3,1.6,2.8,2.4,4.2c0.6,1,0.7,2,0.6,3.1
			c0,1.2,0,2.5-0.2,3.7c-0.2,1.5-1,2.8-1.9,4c-0.8,1.1-1.9,1.9-3.1,2.6c-0.5,0.3-0.4,0.8-0.5,1.3c0.4,0,0.7,0,1,0c1.4,0,2.9,0,4.3,0
			c0.2,0,0.5-0.2,0.7-0.3c1.1-1.6,2.2-3.2,3-5c0.2-0.5,0.7-0.4,1-0.4c0.4,0,0.7,0.1,0.8,0.6c0.4,1.8,1.3,3.4,2.2,4.9
			c0.1,0.1,0.2,0.2,0.3,0.2c1.8,0,3.7,0,5.5,0C96.8,64.4,96.8,64.4,96.9,64.4z"/>
	</g>
	<g id="XMLID_4_">
		<path id="XMLID_5_" fill-rule="evenodd" clip-rule="evenodd" fill="#FFFFFF" d="M93.3,41.9c0-2.4-1.8-4.2-4.2-4.2
			c-2.3,0-4.2,1.9-4.2,4.2c0,2.4,2.1,4.2,4.3,4.2C91.5,46.1,93.3,44.2,93.3,41.9z"/>
	</g>
</g>
</svg>
