<?xml version="1.0" encoding="utf-8"?>
<!-- Generator: Adobe Illustrator 18.1.1, SVG Export Plug-In . SVG Version: 6.00 Build 0)  -->
<svg version="1.1" id="Layer_1" xmlns="http://www.w3.org/2000/svg" xmlns:xlink="http://www.w3.org/1999/xlink" x="0px" y="0px"
	 viewBox="0 0 126.4 111.2" enable-background="new 0 0 126.4 111.2" xml:space="preserve">
<g>
	<path fill="#FFFFFF" d="M28.6,71c0-0.7,0.1-1.4,0-2.1c-0.1-1.1,0.4-1.7,1.2-2.3c3.9-3,7.8-6,11.6-9.1c2-1.6,3.8-3.3,5.8-4.9
		c1.9-1.6,3.7-3.4,5.8-4.9c1.1-0.8,1.5-1.5,1.4-2.8c-0.1-0.9,0-1.8,0-2.8c-0.1-1.3-0.4-1.4-1.7-0.5c-0.3,0.2-0.6,0.4-0.8,0.6
		c-0.1-0.3-0.3-0.6-0.3-0.9c-0.1-0.2,0-0.5,0-0.7c0.1-1.6-0.3-3.4,0.3-4.8c0.6-1.2,2.3-1.7,3.4-2.7c1.6-1.4,3.1-2.8,4.5-4.3
		c0.4-0.4,0.7-1.2,0.7-1.8c0.1-4.9,0-9.7,0-14.6c0-1.1-0.4-1.4-1.5-1.4c-0.8,0.1-1.6,0-2.4,0c-2.3,0-2.3,0-2.3-2.2c0-2.2,0-2,2.5-2
		c3.7,0,3.7,0,3.7-3.6c0-0.5,0-0.9,0-1.4c0-2,0-2,2.2-2c1.8,0,1.9,0,1.9,1.9c0,1.3,0,2.5,0,3.8c0,0.9,0.4,1.3,1.2,1.2
		c0.8,0,1.6,0,2.4,0c2,0,2,0,2,2.2c0,2,0,2-2.1,2.1c-3.6,0.1-3.6,0.1-3.6,3.8c0,3.7,0.1,7.4,0,11.1c-0.1,1.7,0.6,2.8,1.8,3.8
		c2.4,1.9,4.8,3.9,7.1,5.9c0.5,0.4,0.8,1.1,0.8,1.7c0.1,1.4,0,2.8,0,4.2c0,1.3-0.4,1.7-1.6,0.9c-0.6-0.4-1.1-0.2-1.2,0.6
		c-0.1,0.9-0.1,1.9,0,2.8c0,0.4,0.2,0.9,0.5,1.2c1.6,1.3,3.2,2.5,4.8,3.8c2.8,2.2,5.5,4.5,8.2,6.7c2.8,2.3,5.7,4.6,8.6,6.9
		c0.2,0.1,0.4,0.2,0.6,0.3c3.3,1.9,3.2,5,2.8,8.1c0,0.2-0.8,0.5-1,0.3c-2.8-2.2-5.5-4.5-8.3-6.7c-3.8-3.1-7.7-6-11.6-9.1
		c-1.9-1.5-3.7-3.1-5.6-4.6c-2.1-1.7-4.3-3.4-6.4-5.1c-1-0.8-1.8-0.8-2.7,0.1c-3.1,2.7-6.3,5.4-9.4,8c-3.7,3.1-7.5,6.1-11.2,9.1
		c-3.6,2.9-7.1,5.8-10.7,8.6c-0.3,0.3-0.8,0.4-1.1,0.6c-0.2-0.5-0.4-1-0.5-1.5C28.5,72.2,28.6,71.6,28.6,71z M66,38.9L66,38.9
		c0-0.7,0-1.4,0-2.1c0-0.8-0.2-1.2-1-1.6c-0.9-0.4-1.6-1.8-2.7-1.2c-1.4,0.8-3.1,1.7-3.2,3.7c0,0.8-0.1,1.6,0,2.4
		c0.1,0.4,0.3,0.9,0.7,1.1c0.2,0.1,0.7-0.2,1-0.5c1.9-1.6,1.9-1.6,4,0.1c0.1,0.1,0.2,0.2,0.3,0.2c0.2,0.1,0.4,0.3,0.6,0.4
		c0.1-0.3,0.3-0.6,0.3-0.9C66.1,40.1,66,39.5,66,38.9z"/>
	<path fill="#FFFFFF" d="M68.8,75.1c0,3.6,0,7.2,0,10.7c0,1.6,0.1,1.7,1.8,1.7c2.1,0,4.2,0.1,6.2,0c1.1,0,1.7,0.2,1.7,1.5
		c-0.1,4.3-0.1,8.6,0,12.8c0,1.2-0.4,1.6-1.6,1.6c-3.6-0.1-7.2,0-10.7,0c-1.9,0-2.2-0.3-2.2-2.2c0-1.4,0-2.8,0-4.2
		c0-0.9,0.4-1.2,1.3-1.2c1,0,2.1,0,3.1,0c0.7,0,1.1,0.2,1.1,1c0,0.9,0.6,1.1,1.3,1.1c2,0.1,2.2,0,2.2-2c0-3.1,0.3-2.9-2.7-2.9
		c-1.7,0-3.5,0-5.2,0c-1.1,0-1.7-0.5-1.8-1.7c0-0.6,0-1.2,0-1.7c0-12.1,0-24.3,0-36.4c0-0.6,0-1.2,0-1.7c0.1-0.8,0.5-1,1.1-0.6
		c0.9,0.6,1.7,1.2,2.5,1.8c3.4,2.8,6.6,5.6,10.1,8.3c0.7,0.5,0.8,1,0.8,1.7c0,6.7,0,13.4,0,20.1c0,0.9-0.5,1.2-1.3,1.1
		c-0.1,0-0.2,0-0.3,0c-3.7-0.1-3.2,0.5-3.2-3c0-4.5-0.1-9,0.1-13.5c0.1-2.2-0.9-3.5-2.4-4.6c-0.3-0.2-0.9-0.4-1.3-0.2
		c-0.3,0.1-0.6,0.7-0.6,1.1c0,2.8,0,5.5,0,8.3C68.8,73,68.8,74,68.8,75.1z"/>
	<path fill="#FFFFFF" d="M62.5,71.8c0,6.5,0,12.9,0,19.4c0,1.7,0,1.7-1.7,1.8c-2,0-3.9,0-5.9,0c-1,0-1.5,0.3-1.5,1.4
		c0,2.1,0,4.2,0,6.2c0,2.6-0.2,2.7-2.7,2.8c-0.3,0-0.7,0-1,0c-1.7,0-1.8-0.1-1.8-1.7c0-12.8,0-25.6,0-38.5c0-1.1,0.3-1.7,1.3-2.5
		c3.1-2.3,6-5,9-7.4c1-0.8,2-1.6,3-2.3c0.8-0.5,1.2-0.3,1.2,0.7C62.5,58.4,62.5,65.1,62.5,71.8C62.5,71.8,62.5,71.8,62.5,71.8z
		 M57,74.8C57,74.8,57,74.8,57,74.8c0-4,0-8.1,0-12.1c0-0.2-0.1-0.5-0.2-0.6c-0.1-0.1-0.4,0.1-0.5,0.2c-1.7,1.4-3,2.9-2.8,5.5
		c0.3,4.1,0.1,8.3,0.1,12.5c0,2,0,3.9,0,5.9c0,0.4,0.2,1.2,0.4,1.2c0.9,0.2,1.8,0.2,2.7,0.1c0.2,0,0.4-1,0.5-1.5
		C57,82.2,57,78.5,57,74.8z"/>
	<path fill="#FFFFFF" d="M46,73.3c0,2.9,0,5.8,0,8.7c0,1-0.4,1.5-1.4,1.4c-0.1,0-0.2,0-0.3,0c-3.6-0.1-3.2,0.5-3.2-3
		c0-1,0.1-2.1,0-3.1c0-0.4-0.3-0.9-0.6-1.1c-0.2-0.1-0.8,0.2-1.1,0.4c-1.8,1.3-2.9,2.9-2.5,5.3c0.2,0.9,0,1.8,0,2.8
		c0,2.2,1.1,3,3.4,2.7c1.4-0.2,2.7-0.3,4.1-0.3c1.1,0,1.7,0.6,1.7,1.7c0,4.5,0,9,0,13.5c0,0.8-0.3,1.2-1.2,1.2c-4,0-8.1,0-12.1,0
		c-0.8,0-1.3-0.3-1.3-1.2c0-2,0-3.9,0-5.9c0-0.9,0.4-1.2,1.3-1.2c1,0,2.1-0.1,3.1,0c0.4,0.1,1.2,0.5,1.2,0.8
		c0.1,1.2,0.8,1.2,1.7,1.2c2.6,0.1,2.7,0,2.6-2.6c0-1.2-0.4-1.6-1.6-1.6c-2.2,0.1-4.4,0-6.6,0c-1.1,0-1.7-0.2-1.7-1.5
		c0.1-4.6,0-9.3,0-13.9c0-1.1,0.3-2,1.2-2.7c2.3-1.9,4.5-4,6.8-5.9c1.8-1.5,3.8-3,5.6-4.5c0.3-0.2,0.5-0.4,0.8-0.6
		c0.1,0.3,0.3,0.6,0.3,0.9C46,67.7,46,70.5,46,73.3C46,73.3,46,73.3,46,73.3z"/>
	<path fill="#FFFFFF" d="M109,82.6c0.4,1.2,0.7,2.4,1.1,3.5c0.5,1.4,1.1,2.7,1.8,4.1c0.1,0.3,0.4,0.6,0.6,0.6c0.2,0,0.6-0.3,0.6-0.5
		c1.4-4.3,7.5-6.6,12.3-3.3c0.8,0.6,1.3,3.8,0.6,4.4c-0.3,0.2-0.8,0.2-1.3,0.1c-1-0.2-2-0.6-3-0.6c-2.6,0-4.3,1.7-4.4,4.3
		c-0.2,4,1.3,7.6,3.6,10.8c1,1.3,1.8,3,3.6,3.6c0.2,0,0.4,0.4,0.3,0.5c-0.2,0.3-0.5,0.7-0.7,0.7c-2.1,0.1-4.1,0.2-6.2,0.2
		c-0.4,0-1-0.6-1.2-1.1c-0.9-1.6-1.6-3.3-2.5-4.9c-0.3-0.6-0.3-1.6-1.5-1.6c-1.2,0-1.9,0.4-2.4,1.5c-0.8,1.5-1.9,2.8-2.7,4.3
		c-0.8,1.5-2,2-3.7,1.9c-1.4-0.1-2.9-0.1-4.3-0.2c-0.3,0-0.6-0.4-0.7-0.7c-0.1-0.2,0.2-0.6,0.4-0.8c3.5-2.7,5.7-5.3,6.4-8.5
		c1.1-4.9,1.2-9.6-1.8-14.2c-1.4-2.2-2.8-4.1-5.1-5.4c-0.3-0.1-0.5-0.3-0.7-0.5c0.3-0.1,0.6-0.3,0.9-0.3c1,0,2.1,0,3.1,0
		C106.3,80.6,106.3,80.6,109,82.6L109,82.6z"/>
	<path fill="#FFFFFF" d="M16.7,83.4c0.4-0.2,0.9-0.4,1.1-0.7c0.9-1.3,2.2-1.5,3.7-1.4c1,0.1,2.1,0,3.1,0c0.8,0,1.6,0.2,2.4,0.2
		c-0.6,0.5-1.1,0.9-1.7,1.4c-3.1,3.1-5.4,6.7-5.8,11.3c-0.2,2.8,0.2,5.5,0.8,8.2c0.1,0.5,0.4,1,0.7,1.5c1.6,2.3,3.2,4.7,5.6,6.3
		c0.2,0.1,0.3,0.4,0.3,0.6c0,0.1-0.3,0.3-0.5,0.3c-2.2,0-4.4,0.1-6.6,0c-0.4,0-0.8-0.4-1-0.7c-1.2-1.7-2.3-3.4-3.3-5.2
		c-0.5-0.8-0.7-1.7-1.9-1.7c-1.3,0-1.6,1-2.1,1.9c-0.6,1.3-1.3,2.7-2,4c-0.7,1.2-1.6,1.9-3.1,1.7c-1.6-0.2-3.2,0-4.8-0.1
		c-0.3,0-0.7-0.2-0.8-0.5c-0.1-0.2,0.2-0.7,0.4-0.8c2.5-1.4,4.2-3.5,5.3-6.1c1-2.4,2.1-4.8,1.9-7.5c-0.2-2.4-1.5-4-3.6-4.9
		c-1.4-0.6-2.5,0.4-3.6,0.7C0.2,92.1,0,92.2,0,91.2c0-0.1,0-0.2,0-0.3c-0.1-3.5,0.7-4.4,4.2-4.7c4.3-0.4,6.4,0.8,8.4,4.9
		c0.3,0.7,0.8,0.4,0.9,0.1C14.4,88.4,16.6,86.2,16.7,83.4L16.7,83.4z"/>
	<path fill="#FFFFFF" d="M80,83.3c0-5.8,0-11.6,0-17.3c0-0.5,0.3-1.1,0.6-1.3c0.2-0.2,0.9,0.1,1.2,0.3c0.4,0.2,0.7,0.7,1,0.9
		c1.8,1.1,2.5,2.6,2.5,4.8c-0.1,7.5,0,15,0,22.5c0,0.6,0,1.2,0,1.7c0,2.3,0,2.3,2.3,2.2c2,0,2,0,2-2.2c0-2.1,0-4.2,0-6.2
		c0-1.5,0.4-1.8,1.8-1.9c0.6,0,1.2,0,1.7,0c2.3,0.1,2.5,0.2,2.6,2.6c0,3.9,0,7.9,0,11.8c0,1.7-0.3,2.1-2,2.1c-3.9,0-7.9,0-11.8,0
		c-1.7,0-2-0.3-2.1-2c-0.1-2.9,0-5.8,0-8.7C80,89.6,80,86.4,80,83.3z"/>
	<path fill="#FFFFFF" d="M109.1,82.7c0-1.3-0.1-2.5,0-3.8c0.1-3.6,3-5.9,6.5-5.2c2.3,0.4,4.8,3.8,4.6,6.5c-0.1,2.8-2.2,5-5,5.3
		c-1.9,0.2-3.7-0.1-4.9-1.7C110,83.2,109.4,82.9,109.1,82.7L109.1,82.7z"/>
	<path fill="#FFFFFF" d="M16.8,83.3c-0.7,0.6-1.4,1.2-2.1,1.7c-2.6,1.9-6,1.1-8.1-1.7c-1.9-2.6-1.3-5.8,1.4-7.7c3-2.1,4.1-2,6.9-0.1
		c1.2,0.8,1.7,1.8,1.8,3.1C16.8,80.1,16.7,81.8,16.8,83.3L16.8,83.3z"/>
</g>
</svg>
