<?xml version="1.0" encoding="utf-8"?>
<!-- Generator: Adobe Illustrator 18.1.1, SVG Export Plug-In . SVG Version: 6.00 Build 0)  -->
<svg version="1.1" id="Layer_1" xmlns="http://www.w3.org/2000/svg" xmlns:xlink="http://www.w3.org/1999/xlink" x="0px" y="0px"
	 viewBox="0 0 38.6 38.6" enable-background="new 0 0 38.6 38.6" xml:space="preserve">
<path fill="#FFFFFF" d="M31.1,0H7.5C3.3,0,0,3.3,0,7.5v7.9v15.8c0,4.1,3.3,7.5,7.5,7.5h23.7c4.1,0,7.5-3.3,7.5-7.5V15.3V7.5
	C38.6,3.3,35.2,0,31.1,0z M35.6,18.1c-0.7,0.8-1.8,1.4-3.8,1.4C29.3,29.9,12,34.4,4,23.5c3,2.9,8.4,3.2,11.7-0.3
	c-2,0.3-3.4-1.6-1-2.7c-2.2,0.2-3.4-0.9-3.9-1.9c0.5-0.5,1.1-0.8,2.2-0.9c-2.4-0.6-3.3-1.7-3.5-3.1c0.7-0.2,1.5-0.3,1.9-0.2
	c-2.1-1.1-2.8-2.7-2.7-4c3.7,1.4,6.1,2.5,8.1,3.6c0.7,0.4,1.5,1.1,2.4,1.9c1.1-3,2.5-6.1,4.9-7.6c0,0.3-0.2,0.7-0.5,0.9
	c0.7-0.6,1.6-1,2.5-1.2c-0.1,0.7-1.1,1.1-1.7,1.3c0.4-0.1,2.8-1.2,3.1-0.6c0.3,0.7-1.6,1-2,1.1c-0.2,0.1-0.5,0.2-0.7,0.3
	c3-0.3,5.9,2.2,6.7,5.2c0.1,0.2,0.1,0.5,0.2,0.7c1.1,0.4,3.1,0,3.7-0.4c-0.5,1.1-1.7,1.9-3.4,2C32.9,18.1,34.5,18.3,35.6,18.1z"/>
</svg>
